<?xml version="1.0" encoding="utf-8"?>
<!-- Generator: Adobe Illustrator 25.4.1, SVG Export Plug-In . SVG Version: 6.00 Build 0)  -->
<svg version="1.1" id="Layer_1" xmlns="http://www.w3.org/2000/svg" xmlns:xlink="http://www.w3.org/1999/xlink" x="0px" y="0px"
	 viewBox="0 0 841.89 595.28" style="enable-background:new 0 0 841.89 595.28;" xml:space="preserve">
<style type="text/css">
	.st1{fill:#AE2B30;}
	.st2{fill:#CBB24E;}
</style>
<g>
	<g>
		<polygon class="st1" points="541.88,300.62 593.53,299.35 593.53,299.35 		"/>
		<path class="st1" d="M408.59,189.91c-0.93,1.06-1.8,2.16-2.68,3.24c2.33,1.2,4.81,2.44,7.36,3.71c0.46-0.55,0.9-1.12,1.37-1.66
			c10.59-12.1,23.02-21.55,36.34-27.94c-4.65,0.81-9.94,1.68-15.97,2.63c-1.75,0.27-3.57,0.56-5.44,0.85
			c-1.88,1.36-3.72,2.78-5.54,4.26c-2.29,1.87-4.55,3.8-6.73,5.85C414.29,183.7,411.38,186.72,408.59,189.91z"/>
		<path class="st1" d="M440.79,376.38c-1.06-0.65-2.12-1.33-3.17-2.03C438.67,375.05,439.73,375.73,440.79,376.38z"/>
		<path class="st1" d="M489.66,149.83c-0.04,0.22-0.07,0.45-0.12,0.67c-0.37,1.61-1.02,3.12-1.93,4.5
			c-0.75,1.12-1.41,2.11-2.56,3.07c2.01-0.14,4.03-0.23,6.04-0.23c62.28,0,95.1,44.14,105.04,85.44l0.74,3.09l-3.18,0.21
			l-51.64,3.39l-2.13,0.14l-0.61-2.04c-0.1-0.33-10.38-33.23-42.3-33.23c-13.63,0-25.15,6.13-33.9,14.95c1.93,1.97,3.77,3.98,5.45,6
			c2.5-2.56,5.26-4.87,8.25-6.79c1.31-0.84,2.66-1.61,4.06-2.3c4.89-2.41,10.3-3.82,16.14-3.82h0l0,0c8.84,0,15.65,3.12,20.79,7.27
			c9.83,7.91,13.59,19.53,13.81,20.24c0.17,0.57,0.39,1.12,0.64,1.64c0.05,0.1,0.12,0.18,0.17,0.28c1.03,1.94,2.6,3.51,4.5,4.5
			c0.01,0,0.01,0.01,0.02,0.01c0.99,0.52,2.07,0.88,3.2,1.06c0.31,0.05,0.63,0.05,0.95,0.08c0.26,0.02,0.52,0.06,0.78,0.06
			c0.23,0,0.47-0.01,0.71-0.02l51.64-3.39c0.79-0.05,1.56-0.19,2.31-0.41c0.75-0.22,1.46-0.52,2.14-0.89
			c1.35-0.74,2.55-1.78,3.49-3.05c0.53-0.72,0.96-1.51,1.29-2.33c0.22-0.55,0.4-1.11,0.53-1.68c0.1-0.45,0.18-0.91,0.23-1.38
			c0.11-1.16,0.02-2.33-0.25-3.49c-0.39-1.62-0.81-3.23-1.25-4.83c-1.77-6.38-3.96-12.51-6.54-18.37c-1.29-2.93-2.68-5.79-4.17-8.57
			c-5.2-9.74-11.57-18.57-18.99-26.28c-2.12-2.2-4.33-4.31-6.62-6.33c-5.06-4.45-10.48-8.38-16.22-11.77
			c-2.87-1.69-5.82-3.25-8.84-4.67c-1.51-0.71-3.04-1.39-4.59-2.03c-6.19-2.57-12.67-4.58-19.39-6.03
			c-8.4-1.81-17.17-2.73-26.24-2.73C490.61,149.79,490.14,149.82,489.66,149.83z"/>
		<path class="st1" d="M602.77,293.92c-0.38-0.65-0.84-1.27-1.36-1.84c-1.02-1.1-2.24-1.97-3.58-2.55c-1.34-0.59-2.81-0.9-4.3-0.9
			c-0.09,0-51.91,1.27-51.91,1.27c-0.62,0.02-1.24,0.09-1.83,0.21c-1.19,0.24-2.32,0.68-3.34,1.29c-1.53,0.91-2.83,2.2-3.76,3.75
			c-0.62,1.03-1.07,2.18-1.32,3.4c-0.01,0.05-0.7,3.33-2.61,7.72c-0.77,1.76-1.73,3.69-2.92,5.68c-0.6,0.99-1.25,1.99-1.97,2.99
			c-0.88,1.22-1.81,2.37-2.78,3.45c-0.97,1.07-1.99,2.07-3.06,2.99c-3.2,2.76-6.8,4.84-10.8,6.23c-4,1.39-8.39,2.09-13.16,2.09
			c-6.33,0-11.74-1.45-16.35-3.91c-1.14,2.38-2.42,4.78-3.77,7.17c5.64,2.99,12.28,4.78,20.12,4.78c37.46,0,44.9-36.08,45.2-37.61
			l0.41-2.12l2.16-0.05l51.64-1.27l3.05-0.08l-0.32,3.04c-6.6,62.32-56.46,95.94-100.02,95.94c-18.44,0-41.96-6.18-62.68-20.7
			c-2.53,1.52-5.14,2.95-7.83,4.27c22.99,17.21,49.75,24.47,70.51,24.47c2.94,0,5.91-0.14,8.89-0.42s5.98-0.7,8.97-1.26
			c4.49-0.84,8.99-1.99,13.44-3.45c4.45-1.46,8.86-3.23,13.18-5.29c2.88-1.38,5.72-2.89,8.51-4.54c2.79-1.65,5.53-3.43,8.2-5.34
			c1.34-0.96,2.66-1.95,3.96-2.97c5.21-4.09,10.13-8.71,14.66-13.84c2.27-2.57,4.43-5.26,6.49-8.08c4.11-5.64,7.79-11.8,10.91-18.46
			c0.78-1.66,1.53-3.36,2.24-5.09c2.84-6.9,5.11-14.31,6.71-22.2c0.8-3.94,1.42-8.01,1.87-12.2
			C604.43,298.18,603.92,295.88,602.77,293.92z"/>
		<path class="st1" d="M466.73,237.76c-1.69-2.05-3.54-4.06-5.46-6.03l0,0C463.19,233.7,465.04,235.7,466.73,237.76L466.73,237.76z"
			/>
		<path class="st1" d="M411.51,198.98c-0.81-0.41-1.62-0.8-2.44-1.22C409.89,198.18,410.7,198.58,411.51,198.98L411.51,198.98z"/>
		<path class="st2" d="M494.05,340.41c-8.3,0-15.38-1.93-21.41-5.17c-0.01,0.02-0.02,0.04-0.03,0.06
			c-3.86,6.49-8.32,12.58-13.25,18.12c-6.9,7.76-14.74,14.45-23.3,19.9c0.52,0.36,1.04,0.7,1.56,1.05c1.05,0.7,2.1,1.37,3.17,2.03
			c18.55,11.43,38.8,16.52,55.38,16.52c38.94,0,90.58-29.63,97.36-93.55l-51.64,1.27C541.88,300.62,534.27,340.41,494.05,340.41z"/>
		<path class="st2" d="M476.52,216.81c1.75-0.84,3.57-1.58,5.43-2.21c1.87-0.63,3.8-1.15,5.78-1.54c0.99-0.2,2-0.36,3.01-0.5
			c2.04-0.27,4.13-0.41,6.27-0.41c34.29,0,44.87,35.13,44.87,35.13l51.64-3.39c-11.01-45.72-46.14-83.39-102.44-83.39
			c-4.71,0-9.41,0.45-14.08,1.24c-2.96,0.89-6.88,1.85-12.15,2.93c-18.39,5.84-35.6,17.55-49.13,33.4c1.67,0.83,3.32,1.65,4.94,2.45
			l1.7,0.84c15.76,7.78,28.84,16.69,38.88,26.5C465.67,223.4,470.77,219.57,476.52,216.81z"/>
		<path class="st2" d="M351.61,311.81c-0.08-0.08-0.16-0.17-0.25-0.25C351.44,311.64,351.52,311.73,351.61,311.81z"/>
		<path class="st2" d="M367.67,320.25c0.22,0.05,0.45,0.09,0.67,0.14C368.12,320.34,367.9,320.3,367.67,320.25z"/>
		<path class="st2" d="M369.54,320.62c0.25,0.04,0.51,0.08,0.76,0.12C370.05,320.7,369.8,320.66,369.54,320.62z"/>
		<path class="st2" d="M364.63,184.48c1.31,0.97,2.68,1.93,4.08,2.89C367.3,186.41,365.94,185.45,364.63,184.48z"/>
		<path class="st2" d="M343.47,300.35c0.13,0.27,0.26,0.53,0.39,0.79C343.73,300.88,343.59,300.62,343.47,300.35z"/>
		<path class="st2" d="M371.43,320.89c0.26,0.03,0.53,0.06,0.79,0.09C371.96,320.95,371.7,320.93,371.43,320.89z"/>
		<path class="st2" d="M373.34,321.08c0.26,0.02,0.53,0.04,0.79,0.05C373.87,321.12,373.61,321.1,373.34,321.08z"/>
		<path class="st2" d="M370.78,253.85c-3.3-1.21-6.7-2.43-10.13-3.68C364.08,251.42,367.48,252.65,370.78,253.85z"/>
		<path class="st2" d="M365.82,319.78c0.12,0.03,0.24,0.06,0.36,0.09C366.06,319.84,365.94,319.82,365.82,319.78z"/>
		<path class="st2" d="M355.8,177.1c2.58,2.5,5.54,4.96,8.83,7.38C361.35,182.06,358.38,179.6,355.8,177.1z"/>
		<path class="st2" d="M376.62,321.18c1.12-0.01,2.25-0.05,3.37-0.15C378.87,321.13,377.75,321.18,376.62,321.18z"/>
		<path class="st2" d="M344.53,302.46c0.15,0.28,0.3,0.55,0.46,0.82C344.83,303.01,344.68,302.74,344.53,302.46z"/>
		<path class="st2" d="M354.69,314.38c0.21,0.16,0.42,0.3,0.64,0.45C355.11,314.68,354.9,314.53,354.69,314.38z"/>
		<path class="st2" d="M349.65,309.79c0.17,0.19,0.33,0.38,0.5,0.56C349.98,310.17,349.82,309.97,349.65,309.79z"/>
		<path class="st2" d="M353.11,313.14c0.17,0.14,0.34,0.27,0.51,0.41C353.46,313.41,353.28,313.28,353.11,313.14z"/>
		<path class="st2" d="M348.22,308.1c0.18,0.23,0.36,0.45,0.54,0.67C348.58,308.55,348.4,308.32,348.22,308.1z"/>
		<path class="st2" d="M346.9,306.33c0.18,0.25,0.35,0.5,0.53,0.74C347.25,306.83,347.08,306.58,346.9,306.33z"/>
		<path class="st2" d="M363.45,319.02c0.19,0.07,0.37,0.14,0.56,0.2C363.82,319.16,363.63,319.09,363.45,319.02z"/>
		<path class="st2" d="M361.52,318.27c0.23,0.1,0.46,0.2,0.7,0.29C361.98,318.47,361.75,318.36,361.52,318.27z"/>
		<path class="st2" d="M359.72,317.44c0.24,0.12,0.48,0.24,0.72,0.35C360.2,317.68,359.96,317.56,359.72,317.44z"/>
		<path class="st2" d="M357.99,316.52c0.24,0.14,0.48,0.27,0.72,0.4C358.47,316.79,358.23,316.66,357.99,316.52z"/>
		<path class="st2" d="M356.31,315.5c0.23,0.15,0.46,0.29,0.69,0.44C356.77,315.79,356.54,315.65,356.31,315.5z"/>
		<path class="st2" d="M345.67,304.45c0.17,0.27,0.33,0.53,0.5,0.8C346.01,304.98,345.84,304.72,345.67,304.45z"/>
		<path class="st2" d="M338.45,277.42c0.01,0.36,0.04,0.71,0.06,1.07C338.49,278.13,338.46,277.78,338.45,277.42z"/>
		<path class="st2" d="M331.87,366.48c-4.14-2.2-8-4.7-11.58-7.48C323.88,361.78,327.73,364.28,331.87,366.48z"/>
		<polygon class="st2" points="280.93,280.09 280.93,280.09 338.38,274.06 		"/>
		<path class="st2" d="M345.16,372.12c-4.72-1.55-9.14-3.44-13.28-5.64C336.01,368.68,340.44,370.57,345.16,372.12z"/>
		<path class="st2" d="M320.29,359.01c-1.77-1.36-3.44-2.81-5.08-4.3C316.85,356.19,318.52,357.64,320.29,359.01z"/>
		<path class="st2" d="M365.64,376.36c-3.69-0.37-7.23-0.91-10.65-1.62C358.41,375.45,361.95,376,365.64,376.36z"/>
		<path class="st2" d="M380.04,194.45c1.6,0.93,3.24,1.86,4.9,2.78C383.27,196.31,381.64,195.38,380.04,194.45z"/>
		<path class="st2" d="M354.99,374.74c-3.41-0.71-6.69-1.59-9.84-2.62C348.3,373.15,351.58,374.03,354.99,374.74z"/>
		<path class="st2" d="M376.04,321.19c-0.25,0-0.51-0.01-0.76-0.02C375.53,321.18,375.79,321.19,376.04,321.19z"/>
		<path class="st2" d="M377.12,376.92L377.12,376.92c-3.97,0-7.79-0.19-11.48-0.56C369.33,376.73,373.15,376.92,377.12,376.92z"/>
		<path class="st2" d="M338.64,280.64c0.03,0.41,0.07,0.81,0.11,1.21C338.71,281.45,338.67,281.05,338.64,280.64z"/>
		<path class="st2" d="M339.92,289.55c0.08,0.37,0.16,0.74,0.24,1.1C340.08,290.29,340,289.92,339.92,289.55z"/>
		<path class="st2" d="M341.4,295.09c0.07,0.23,0.14,0.46,0.22,0.68C341.54,295.55,341.48,295.31,341.4,295.09z"/>
		<path class="st2" d="M342.49,298.12c0.08,0.19,0.16,0.36,0.24,0.55C342.65,298.48,342.57,298.31,342.49,298.12z"/>
		<path class="st2" d="M340.58,292.31c0.09,0.32,0.17,0.65,0.26,0.97C340.75,292.96,340.67,292.63,340.58,292.31z"/>
		<path class="st2" d="M338.95,283.74c0.05,0.41,0.11,0.82,0.16,1.23C339.06,284.55,339,284.15,338.95,283.74z"/>
		<path class="st2" d="M352.9,174.08c-4.95-5.58-7.84-11.38-7.84-17.49v0C345.06,162.7,347.95,168.5,352.9,174.08z"/>
		<path class="st2" d="M339.38,286.7c0.07,0.4,0.13,0.79,0.21,1.18C339.51,287.49,339.44,287.1,339.38,286.7z"/>
		<path class="st2" d="M423.3,377.35c1.78-0.85,3.54-1.75,5.27-2.7c1.73-0.95,3.44-1.95,5.12-3c8.66-5.39,16.62-12.09,23.67-20.03
			c2.45-2.75,4.76-5.62,6.92-8.58c2.16-2.96,4.18-6.01,6.03-9.13c1.85-3.12,3.55-6.3,5.08-9.5c2.98-6.26,5.3-12.65,6.88-18.94
			c1.58-6.3,2.41-12.5,2.41-18.4c0-5.72-0.59-11.26-1.76-16.62c-2.11-9.65-6.11-18.7-11.99-27.15c-0.65-0.94-1.33-1.87-2.03-2.79
			c-0.17-0.23-0.36-0.45-0.53-0.67c-0.54-0.7-1.07-1.39-1.64-2.08c0,0,0,0,0,0c-1.69-2.05-3.54-4.05-5.46-6.03
			c-0.62-0.64-1.22-1.28-1.86-1.91c0,0,0,0,0,0c0,0,0-0.01-0.01-0.01c-1.23-1.21-2.51-2.4-3.84-3.57
			c-7.95-7.06-17.51-13.57-28.66-19.53c-1.86-0.99-3.76-1.97-5.71-2.93c-2.35-1.16-4.76-2.35-7.22-3.57l0,0
			c-0.01-0.01-0.02-0.01-0.04-0.02c-0.8-0.39-1.61-0.8-2.42-1.2c-0.81-0.41-1.62-0.8-2.44-1.22c-1.63-0.82-3.27-1.66-4.92-2.5
			c-2.99-1.53-5.99-3.1-8.95-4.69c-1.48-0.8-2.95-1.6-4.4-2.4c-5.81-3.23-11.36-6.54-16.26-9.86c-1.23-0.83-2.41-1.66-3.55-2.49
			c-1.71-1.24-3.31-2.49-4.78-3.73c-0.98-0.83-1.91-1.65-2.78-2.47c-4.76-4.51-7.65-8.92-7.65-13.04v0l0,0
			c0-5.31,1.11-9.91,3.24-13.73c4.69-8.4,14.32-13.01,27.94-13.01c2.92,0,5.5,0.4,7.79,1.12c4.01,1.25,7.11,3.44,9.51,6.07
			c0.34,0.38,0.67,0.76,0.99,1.15c1.26,1.57,2.3,3.25,3.16,4.96c0.21,0.43,0.42,0.86,0.61,1.28c0.77,1.71,1.37,3.42,1.83,5.04
			c0.23,0.81,0.43,1.59,0.6,2.34s0.31,1.46,0.43,2.12c0.06,0.33,0.11,0.65,0.16,0.96c0.29,1.84,0.38,3.19,0.41,3.73
			c0.08,1.9,0.66,3.73,1.66,5.31c0.6,0.95,1.35,1.8,2.23,2.53c1.93,1.6,4.36,2.44,6.82,2.44c0.54,0,1.09-0.04,1.62-0.12
			c0.23-0.04,0.45-0.07,0.68-0.11c3.22-0.5,6.27-0.97,9.15-1.42c46.53-7.36,48.08-9.69,50.77-13.74c0.74-1.11,1.26-2.35,1.55-3.62
			c0.35-1.47,0.38-3,0.09-4.49c-10.67-57.96-51.98-92.56-110.54-92.56c-30.91,0-57.36,11.94-76.47,34.52
			c-4.18,4.94-7.92,10.33-11.17,16.07c-9.75,17.23-15.14,37.62-15.14,58.24c0,18.47,4.2,33.42,10.63,45.52
			c0.71,1.34,1.46,2.65,2.22,3.93c1.53,2.55,3.17,4.96,4.87,7.25c3.42,4.57,7.15,8.62,11.01,12.21c1.93,1.8,3.9,3.48,5.88,5.05
			c1.98,1.57,3.97,3.04,5.95,4.41c1.98,1.37,3.96,2.63,5.9,3.81c9.71,5.87,18.65,9.43,24.1,11.6c5.88,2.35,11.7,4.45,17.34,6.49
			c5.5,1.98,10.55,3.85,15.08,5.67c-0.41,6.43-0.35,12.94,0.2,19.45c0.18,2.17,0.42,4.34,0.71,6.51c0.39,2.9,0.85,5.72,1.37,8.49
			c0.53,2.76,1.12,5.46,1.78,8.09c-1.47,0.21-2.95,0.32-4.41,0.32c-0.65,0-1.32-0.02-2.03-0.07c-2.12-0.14-4.48-0.52-6.88-1.33
			c-0.8-0.27-1.61-0.59-2.41-0.96c-2.41-1.12-4.81-2.73-6.98-5.02c-5.83-6.15-8.93-16.19-8.93-29.03c0-3.04-1.29-5.94-3.54-7.96
			c-1.98-1.78-4.54-2.76-7.18-2.76c-0.36,0-0.74,0.03-1.11,0.05l-57.46,6.03c-0.71,0.08-1.41,0.22-2.09,0.44
			c-0.67,0.21-1.32,0.49-1.94,0.83c-1.23,0.68-2.33,1.59-3.22,2.72c-1.8,2.24-2.61,5.11-2.28,7.95c2.39,20.19,9.34,49.1,28.9,72.18
			c1.18,1.39,2.39,2.75,3.64,4.06c8.7,9.19,18.92,16.34,30.39,21.36c1.64,0.72,3.3,1.39,4.99,2.02c11.83,4.41,24.89,6.67,38.92,6.67
			C393.49,387.64,409.13,384.11,423.3,377.35z M377.12,379.6c-30.07,0-54.23-10.52-71.81-31.27
			c-18.26-21.55-24.78-48.84-27.04-67.93l-0.32-2.7l2.7-0.28l57.45-6.03l2.96-0.31v2.98c0,41.25,27,44.46,35.27,44.46
			c2.31,0,4.66-0.21,6.99-0.61c2.55-0.44,5.05-1.12,7.46-2.02c-2.35-7.42-4.13-15.26-5.21-23.37c-1.34-10.06-1.47-20.18-0.4-30.11
			c-2.38-1.04-5.04-2.14-8.27-3.39c-4.04-1.56-8.22-3.07-12.64-4.67c-5.55-2.01-11.28-4.08-17.02-6.36
			c-28.12-11.2-65.51-32.34-65.51-86.31c0-25.61,8.9-50.8,24.41-69.12c17.55-20.72,41.87-31.67,70.33-31.67
			c28.83,0,52.67,8.45,70.87,25.11c16.19,14.83,27.18,35.87,31.77,60.86c0.15,0.76,0,1.54-0.44,2.2c-0.87,1.31-1.78,2.67-29.1,7.48
			c-12.97,2.29-25.89,4.26-26.02,4.28l-2.96,0.45l-0.13-2.99c-0.06-1.49-1.92-36.48-33.51-36.48c-24.19,0-39.22,13.33-39.22,34.78
			c0,16.5,24.66,31.43,51.32,45.11c3.15,1.63,6.42,3.26,9.58,4.85c3,1.49,6.02,2.97,9.03,4.46c15.29,7.55,27.75,16.12,37.03,25.45
			c2.82,2.81,5.39,5.75,7.61,8.72c9.5,12.48,14.31,26.57,14.31,41.89c0,9.45-2.47,20.13-7.15,30.9c-1.55,3.55-3.33,7.07-5.28,10.46
			c-6.51,11.31-18.38,27.14-38.01,38.38c-3.37,1.94-6.97,3.73-10.71,5.3C403.55,377.08,390.65,379.6,377.12,379.6z"/>
		<path class="st2" d="M383.78,320.54c1.78-0.31,3.55-0.73,5.27-1.25C387.33,319.82,385.57,320.23,383.78,320.54
			c-1.16,0.2-2.33,0.35-3.5,0.46C381.46,320.89,382.63,320.75,383.78,320.54z"/>
		<path class="st2" d="M416.49,213.42c1.79,0.88,3.55,1.79,5.28,2.71C420.04,215.2,418.28,214.3,416.49,213.42
			c-3.02-1.49-6.03-2.98-9.03-4.46C410.46,210.44,413.47,211.93,416.49,213.42z"/>
		<path class="st2" d="M431.75,221.88c3.19,1.99,6.24,4.07,9.13,6.22C437.99,225.95,434.94,223.87,431.75,221.88z"/>
		<path class="st2" d="M445.11,231.39c2.74,2.24,5.31,4.56,7.7,6.97C450.42,235.95,447.85,233.63,445.11,231.39z"/>
		<path class="st2" d="M421.77,216.13c3.46,1.84,6.79,3.76,9.98,5.75C428.56,219.88,425.23,217.97,421.77,216.13z"/>
		<path class="st2" d="M387.74,263.57c-0.03,0.32-0.07,0.65-0.1,0.97C387.67,264.22,387.71,263.9,387.74,263.57L387.74,263.57z"/>
		<path class="st2" d="M387.13,276.16c-0.01-1.31,0.01-2.61,0.05-3.91C387.14,273.55,387.12,274.85,387.13,276.16z"/>
		<path class="st2" d="M460.19,246.81c-2.2-2.94-4.66-5.75-7.37-8.44C455.52,241.06,457.99,243.87,460.19,246.81z"/>
		<path class="st1" d="M388.23,292.15c1.09,8.12,2.82,15.66,5.04,22.7c11.1-5.01,17.99-14.04,17.99-23.65
			c0-11.65-7.06-19.95-23.52-27.63c-0.03,0.32-0.07,0.65-0.1,0.97c-0.23,2.54-0.39,5.11-0.46,7.71c-0.04,1.3-0.05,2.6-0.05,3.91
			C387.15,281.4,387.51,286.74,388.23,292.15z"/>
		<path class="st1" d="M414.45,369.64c3.63-1.53,7.1-3.24,10.4-5.15c2.05-1.17,4.04-2.42,5.96-3.72c3.85-2.6,7.45-5.45,10.79-8.47
			c1.67-1.51,3.28-3.07,4.82-4.67c6.18-6.39,11.33-13.39,15.44-20.54c1.94-3.38,3.66-6.8,5.15-10.2c2.3-5.29,4.03-10.54,5.19-15.58
			c1.16-5.03,1.74-9.85,1.74-14.25c0-15.43-5-28.75-13.77-40.27c-2.2-2.94-4.66-5.75-7.37-8.44c-2.4-2.41-4.97-4.73-7.7-6.97
			c-1.37-1.12-2.78-2.22-4.22-3.29c-2.89-2.15-5.94-4.23-9.13-6.22c-3.19-1.99-6.52-3.91-9.98-5.75c-1.73-0.92-3.49-1.82-5.28-2.71
			c-3.02-1.49-6.03-2.98-9.03-4.46c-3.24-1.62-6.46-3.23-9.62-4.87c-4.42-2.27-8.74-4.55-12.9-6.86c-1.66-0.92-3.3-1.85-4.9-2.78
			c-4-2.33-7.81-4.69-11.33-7.08c-1.41-0.96-2.77-1.92-4.08-2.89c-3.28-2.42-6.25-4.88-8.83-7.38c-1.03-1-2-2.01-2.9-3.02
			c-4.95-5.58-7.84-11.38-7.84-17.48v0l0,0c0-2.7,0.23-5.31,0.68-7.81c0.9-5,2.71-9.57,5.38-13.53c1.34-1.98,2.89-3.82,4.65-5.49
			c7.06-6.67,17.54-10.63,31.19-10.63c34.61,0,36.19,39.05,36.19,39.05s53.97-8.24,53.33-10.79
			c-8.57-46.66-40.64-83.82-100.01-83.82c-59.35,0-92.06,49.22-92.06,98.1c0,30.55,12.15,50.57,29.25,64.46
			c2.56,2.08,5.24,4.03,8,5.85c0.92,0.61,1.85,1.2,2.79,1.78c2.82,1.74,5.72,3.37,8.67,4.89c1.97,1.02,3.96,1.98,5.97,2.91
			c3.01,1.39,6.07,2.69,9.13,3.91c4.16,1.65,8.31,3.19,12.41,4.68c3.43,1.25,6.83,2.48,10.13,3.68c2.42,0.88,4.79,1.77,7.09,2.66
			c1.78,0.69,3.52,1.38,5.22,2.09c1.7,0.7,3.35,1.42,4.96,2.15c6.66,3.04,12.45,6.38,16.86,10.44c1.26,1.16,2.4,2.37,3.43,3.66
			c1.02,1.28,1.92,2.63,2.68,4.06c1.9,3.57,2.94,7.62,2.94,12.3c0,11.63-8.52,21.22-19.86,26.23c-1.62,0.72-3.3,1.34-5.03,1.86
			c-1.72,0.52-3.49,0.94-5.27,1.25c-1.16,0.2-2.33,0.35-3.5,0.46c-0.1,0.01-0.2,0.02-0.3,0.03c-1.12,0.1-2.24,0.14-3.37,0.15
			c-0.1,0-0.19,0.01-0.28,0.01c-0.1,0-0.2-0.01-0.3-0.01c-0.25,0-0.51-0.01-0.76-0.02c-0.38-0.01-0.76-0.02-1.14-0.04
			c-0.26-0.01-0.53-0.03-0.79-0.05c-0.37-0.03-0.75-0.06-1.12-0.1c-0.26-0.03-0.53-0.05-0.79-0.09c-0.38-0.05-0.75-0.1-1.13-0.16
			c-0.25-0.04-0.51-0.08-0.76-0.12c-0.4-0.07-0.8-0.15-1.2-0.23c-0.22-0.05-0.45-0.09-0.67-0.14c-0.5-0.11-1-0.24-1.5-0.37
			c-0.12-0.03-0.24-0.06-0.36-0.09c-0.61-0.17-1.21-0.36-1.81-0.56c-0.19-0.06-0.37-0.14-0.56-0.2c-0.41-0.15-0.82-0.3-1.23-0.46
			c-0.23-0.09-0.46-0.2-0.7-0.29c-0.36-0.15-0.72-0.31-1.07-0.47c-0.24-0.11-0.48-0.23-0.72-0.35c-0.34-0.17-0.68-0.34-1.01-0.52
			c-0.24-0.13-0.48-0.26-0.72-0.4c-0.33-0.19-0.66-0.38-0.99-0.59c-0.23-0.14-0.46-0.29-0.69-0.44c-0.33-0.22-0.66-0.44-0.99-0.67
			c-0.21-0.15-0.43-0.3-0.64-0.45c-0.36-0.26-0.71-0.54-1.06-0.82c-0.17-0.14-0.35-0.27-0.51-0.41c-0.51-0.43-1.01-0.87-1.51-1.33
			c-0.08-0.08-0.16-0.17-0.25-0.25c-0.41-0.39-0.81-0.79-1.21-1.21c-0.17-0.18-0.33-0.37-0.5-0.56c-0.3-0.33-0.6-0.67-0.89-1.02
			c-0.18-0.22-0.36-0.45-0.54-0.67c-0.27-0.34-0.53-0.68-0.79-1.03c-0.18-0.24-0.36-0.49-0.53-0.74c-0.25-0.35-0.49-0.71-0.73-1.08
			c-0.17-0.26-0.34-0.53-0.5-0.8c-0.23-0.38-0.46-0.77-0.69-1.17c-0.15-0.27-0.31-0.54-0.46-0.82c-0.23-0.43-0.45-0.87-0.67-1.32
			c-0.13-0.26-0.26-0.52-0.39-0.79c-0.26-0.55-0.5-1.11-0.74-1.68c-0.08-0.18-0.16-0.36-0.24-0.55c-0.31-0.76-0.6-1.55-0.87-2.35
			c-0.08-0.22-0.14-0.46-0.22-0.68c-0.19-0.59-0.39-1.19-0.56-1.81c-0.09-0.32-0.17-0.65-0.26-0.97c-0.15-0.55-0.29-1.09-0.42-1.66
			c-0.08-0.36-0.16-0.73-0.24-1.1c-0.12-0.55-0.23-1.1-0.34-1.67c-0.07-0.39-0.14-0.79-0.21-1.18c-0.09-0.57-0.18-1.15-0.26-1.74
			c-0.06-0.41-0.11-0.81-0.16-1.23c-0.07-0.62-0.14-1.25-0.2-1.88c-0.04-0.4-0.08-0.8-0.11-1.21c-0.06-0.71-0.1-1.43-0.13-2.16
			c-0.02-0.36-0.04-0.71-0.06-1.07c-0.04-1.1-0.07-2.22-0.07-3.36l-57.45,6.03c0.54,4.52,1.26,9.05,2.18,13.54
			c0.31,1.5,0.64,2.99,0.99,4.48c0.7,2.97,1.5,5.92,2.39,8.84c0.89,2.92,1.87,5.8,2.95,8.63c2.16,5.67,4.72,11.15,7.69,16.36
			c3.72,6.5,8.1,12.57,13.19,18c1.55,1.66,3.19,3.23,4.88,4.77c1.64,1.49,3.31,2.94,5.08,4.3c3.59,2.77,7.44,5.28,11.58,7.48
			c4.14,2.2,8.56,4.09,13.28,5.64c3.15,1.03,6.42,1.91,9.84,2.62c3.41,0.71,6.96,1.26,10.65,1.62s7.51,0.56,11.48,0.56
			c5.21,0,10.22-0.38,15.03-1.1C400.15,374.63,407.59,372.5,414.45,369.64z"/>
	</g>
	<g>
		<g>
			<path class="st2" d="M147.47,464.67l-7.75,2.63c-1.04-3.12-3.25-4.68-6.63-4.68c-3.6,0-5.41,1.18-5.41,3.56
				c0,0.94,0.34,1.75,1.01,2.4c0.67,0.65,2.2,1.23,4.57,1.71c3.97,0.81,6.87,1.63,8.71,2.46c1.84,0.83,3.39,2.16,4.66,4
				c1.26,1.84,1.89,3.9,1.89,6.17c0,3.57-1.36,6.65-4.06,9.25c-2.71,2.6-6.72,3.9-12.04,3.9c-3.99,0-7.38-0.92-10.19-2.76
				c-2.8-1.84-4.65-4.57-5.54-8.2l8.44-1.94c0.95,3.68,3.59,5.53,7.91,5.53c2.09,0,3.64-0.41,4.67-1.23
				c1.02-0.82,1.54-1.8,1.54-2.94c0-1.16-0.47-2.05-1.4-2.69c-0.93-0.64-2.72-1.23-5.38-1.79c-4.95-1.04-8.49-2.46-10.59-4.27
				s-3.16-4.44-3.16-7.91c0-3.51,1.26-6.47,3.77-8.88c2.52-2.41,5.93-3.61,10.24-3.61C140.38,455.39,145.29,458.48,147.47,464.67z"
				/>
			<path class="st2" d="M182.29,463.51h-18.53v8.1h14.57v7.43h-14.57v8.62h18.53v7.81h-27.8v-39.48h27.8V463.51z"/>
			<path class="st2" d="M197,487.66h15.48v7.81h-24.72v-39.48H197V487.66z"/>
			<path class="st2" d="M226.4,487.66h15.48v7.81h-24.72v-39.48h9.24V487.66z"/>
			<path class="st2" d="M274.36,463.51h-18.54v8.1h14.57v7.43h-14.57v8.62h18.54v7.81h-27.8v-39.48h27.8V463.51z"/>
			<path class="st2" d="M289.02,479.83v15.65h-9.18v-39.48h17.11c3.16,0,5.69,0.37,7.6,1.11c1.91,0.74,3.49,2.11,4.75,4.09
				c1.26,1.99,1.88,4.19,1.88,6.62c0,4.74-2.25,8.14-6.76,10.2l7.19,17.45h-10.08l-5.98-15.65H289.02z M289.02,463.02v10.07h5.59
				c1.82,0,3.15-0.13,3.98-0.39c0.83-0.26,1.56-0.84,2.21-1.74c0.65-0.9,0.97-1.92,0.97-3.08c0-1.1-0.32-2.08-0.97-2.95
				c-0.65-0.87-1.35-1.4-2.11-1.61c-0.76-0.2-2.19-0.3-4.28-0.3H289.02z"/>
			<path class="st2" d="M317.68,472.1l3.96-7.87h-3.96v-8.24h8.3v7.2l-5.13,8.91H317.68z"/>
			<path class="st2" d="M360.14,464.67l-7.75,2.63c-1.04-3.12-3.25-4.68-6.63-4.68c-3.6,0-5.41,1.18-5.41,3.56
				c0,0.94,0.34,1.75,1.01,2.4c0.67,0.65,2.2,1.23,4.57,1.71c3.97,0.81,6.87,1.63,8.71,2.46c1.84,0.83,3.39,2.16,4.66,4
				c1.26,1.84,1.89,3.9,1.89,6.17c0,3.57-1.36,6.65-4.06,9.25c-2.71,2.6-6.72,3.9-12.04,3.9c-3.99,0-7.38-0.92-10.19-2.76
				c-2.8-1.84-4.65-4.57-5.54-8.2l8.44-1.94c0.95,3.68,3.59,5.53,7.91,5.53c2.09,0,3.64-0.41,4.67-1.23
				c1.02-0.82,1.54-1.8,1.54-2.94c0-1.16-0.47-2.05-1.4-2.69c-0.93-0.64-2.72-1.23-5.38-1.79c-4.95-1.04-8.49-2.46-10.59-4.27
				s-3.16-4.44-3.16-7.91c0-3.51,1.26-6.47,3.77-8.88c2.52-2.41,5.93-3.61,10.24-3.61C353.04,455.39,357.95,458.48,360.14,464.67z"
				/>
			<path class="st2" d="M413.15,470.69l-9.55,0.61c-0.13-5.57-2.28-8.36-6.43-8.36c-4.76,0-7.14,4.29-7.14,12.87
				c0,4.96,0.65,8.32,1.94,10.08c1.29,1.76,3.11,2.65,5.43,2.65c3.77,0,6.08-2.49,6.92-7.46l8.84,0.55
				c-0.57,4.72-2.3,8.31-5.2,10.77c-2.9,2.46-6.45,3.69-10.65,3.69c-5.15,0-9.34-1.8-12.56-5.41c-3.22-3.61-4.83-8.59-4.83-14.95
				c0-5.96,1.56-10.84,4.68-14.64c3.12-3.8,7.37-5.7,12.77-5.7C406.7,455.39,411.97,460.49,413.15,470.69z"/>
			<path class="st2" d="M433.01,496.08c-5.24,0-9.3-2-12.17-5.99c-2.87-3.99-4.3-8.82-4.3-14.49c0-5.77,1.45-10.58,4.36-14.43
				c2.91-3.85,7.05-5.78,12.42-5.78c5.43,0,9.53,2.06,12.29,6.17c2.76,4.12,4.15,8.83,4.15,14.13c0,5.73-1.42,10.56-4.27,14.49
				C442.64,494.11,438.48,496.08,433.01,496.08z M433.26,462.93c-4.78,0-7.17,4.26-7.17,12.78c0,8.54,2.39,12.81,7.17,12.81
				c4.63,0,6.94-4.26,6.94-12.78C440.21,467.21,437.89,462.93,433.26,462.93z"/>
			<path class="st2" d="M472.96,495.47l-9.6-32.19v32.19h-7.64v-39.48h14.2l6.83,23.63l7.19-23.63h14.24v39.48H489v-32.19
				l-9.79,32.19H472.96z"/>
			<path class="st2" d="M515.2,480.81v14.66h-9.27v-39.48h15.34c3.42,0,6.04,0.37,7.86,1.11c1.81,0.74,3.44,2.07,4.86,3.98
				c1.42,1.91,2.14,4.25,2.14,7.03c0,1.95-0.38,3.85-1.14,5.7s-1.84,3.31-3.22,4.37c-1.39,1.06-2.73,1.76-4.03,2.11
				c-1.3,0.35-3.34,0.52-6.12,0.52H515.2z M514.89,473.64h5.93c2.26,0,3.85-0.53,4.76-1.59c0.91-1.06,1.37-2.28,1.37-3.65
				c0-1.6-0.51-2.87-1.53-3.82c-1.02-0.94-2.56-1.42-4.63-1.42h-5.9V473.64z"/>
			<path class="st2" d="M550.42,487.66h15.48v7.81h-24.72v-39.48h9.24V487.66z"/>
			<path class="st2" d="M579.67,455.99v39.48h-9.1v-39.48H579.67z"/>
			<path class="st2" d="M606.61,455.99l12.18,39.48H609l-2.4-8.13h-12.59l-2.44,8.13h-7.99l12.48-39.48H606.61z M596.2,480.06h8.25
				l-4.09-13.85L596.2,480.06z"/>
			<path class="st2" d="M652.93,455.99v39.48h-7.78l-15.23-26.67c0.02,0.67,0.04,1.12,0.06,1.33c0.08,0.67,0.12,1.24,0.12,1.71
				v23.63h-7.1v-39.48h9.83l13.24,23.28c-0.12-1.16-0.17-2.03-0.17-2.63v-20.65H652.93z"/>
			<path class="st2" d="M692.14,470.69l-9.55,0.61c-0.13-5.57-2.28-8.36-6.43-8.36c-4.76,0-7.15,4.29-7.15,12.87
				c0,4.96,0.65,8.32,1.94,10.08c1.3,1.76,3.11,2.65,5.43,2.65c3.77,0,6.08-2.49,6.91-7.46l8.84,0.55c-0.57,4.72-2.3,8.31-5.2,10.77
				c-2.9,2.46-6.45,3.69-10.65,3.69c-5.15,0-9.34-1.8-12.56-5.41c-3.22-3.61-4.83-8.59-4.83-14.95c0-5.96,1.56-10.84,4.68-14.64
				c3.12-3.8,7.38-5.7,12.78-5.7C685.69,455.39,690.96,460.49,692.14,470.69z"/>
			<path class="st2" d="M725.19,463.51h-18.53v8.1h14.57v7.43h-14.57v8.62h18.53v7.81h-27.8v-39.48h27.8V463.51z"/>
		</g>
		<g>
			<g>
				<path class="st2" d="M212.38,512.01v29.18h-6.72v-29.18H212.38z"/>
				<path class="st2" d="M240.29,512.01v29.18h-5.75l-11.26-19.71c0.01,0.5,0.03,0.83,0.04,0.98c0.06,0.5,0.08,0.92,0.08,1.26v17.46
					h-5.25v-29.18h7.26l9.79,17.21c-0.08-0.86-0.13-1.5-0.13-1.94v-15.26H240.29z"/>
				<path class="st2" d="M265.93,518.43l-5.73,1.94c-0.77-2.31-2.4-3.46-4.9-3.46c-2.66,0-4,0.88-4,2.63c0,0.7,0.25,1.29,0.75,1.77
					c0.5,0.49,1.62,0.91,3.38,1.26c2.93,0.6,5.08,1.21,6.44,1.82c1.36,0.61,2.51,1.6,3.44,2.96c0.93,1.36,1.4,2.88,1.4,4.56
					c0,2.64-1,4.92-3,6.84c-2,1.92-4.97,2.89-8.9,2.89c-2.95,0-5.46-0.68-7.53-2.04c-2.07-1.36-3.44-3.38-4.09-6.06l6.24-1.43
					c0.7,2.72,2.65,4.08,5.85,4.08c1.54,0,2.69-0.3,3.45-0.91c0.76-0.61,1.14-1.33,1.14-2.17c0-0.86-0.34-1.52-1.03-1.99
					c-0.69-0.47-2.01-0.91-3.98-1.32c-3.66-0.77-6.27-1.82-7.83-3.15c-1.56-1.33-2.34-3.28-2.34-5.85c0-2.59,0.93-4.78,2.79-6.56
					c1.86-1.78,4.38-2.67,7.57-2.67C260.69,511.56,264.32,513.85,265.93,518.43z"/>
				<path class="st2" d="M277.97,530.36v10.84h-6.85v-29.18h11.34c2.53,0,4.46,0.27,5.81,0.82c1.34,0.55,2.54,1.53,3.59,2.94
					c1.05,1.41,1.58,3.14,1.58,5.19c0,1.44-0.28,2.84-0.84,4.21c-0.56,1.37-1.36,2.44-2.38,3.23c-1.03,0.78-2.02,1.3-2.98,1.56
					c-0.96,0.26-2.47,0.39-4.52,0.39H277.97z M277.74,525.05h4.38c1.67,0,2.85-0.39,3.52-1.18c0.67-0.78,1.01-1.68,1.01-2.69
					c0-1.18-0.38-2.12-1.13-2.82c-0.75-0.7-1.89-1.05-3.43-1.05h-4.36V525.05z"/>
				<path class="st2" d="M317.72,517.57h-13.7v5.99h10.77v5.49h-10.77v6.37h13.7v5.77h-20.55v-29.18h20.55V517.57z"/>
				<path class="st2" d="M344.97,522.87l-7.06,0.45c-0.1-4.12-1.68-6.18-4.75-6.18c-3.52,0-5.28,3.17-5.28,9.51
					c0,3.66,0.48,6.15,1.44,7.45c0.96,1.3,2.29,1.95,4.01,1.95c2.79,0,4.49-1.84,5.11-5.52l6.53,0.41c-0.42,3.49-1.7,6.15-3.85,7.96
					c-2.14,1.82-4.77,2.73-7.87,2.73c-3.81,0-6.9-1.33-9.28-4c-2.38-2.66-3.57-6.35-3.57-11.05c0-4.4,1.15-8.01,3.46-10.82
					c2.3-2.81,5.45-4.21,9.44-4.21C340.2,511.56,344.09,515.33,344.97,522.87z"/>
				<path class="st2" d="M367.07,512.01v5.77h-7.12v23.41h-6.83v-23.41h-7.17v-5.77H367.07z"/>
				<path class="st2" d="M376.68,512.01v29.18h-6.72v-29.18H376.68z"/>
				<path class="st2" d="M393.26,541.64c-3.87,0-6.87-1.48-8.99-4.43c-2.12-2.95-3.18-6.52-3.18-10.71c0-4.26,1.07-7.82,3.22-10.67
					c2.15-2.85,5.21-4.28,9.18-4.28c4.02,0,7.04,1.52,9.09,4.56c2.04,3.04,3.06,6.52,3.06,10.44c0,4.23-1.05,7.8-3.16,10.71
					C400.38,540.19,397.3,541.64,393.26,541.64z M393.45,517.14c-3.53,0-5.3,3.15-5.3,9.45c0,6.31,1.77,9.47,5.3,9.47
					c3.42,0,5.13-3.15,5.13-9.45C398.58,520.3,396.87,517.14,393.45,517.14z"/>
				<path class="st2" d="M432.18,512.01v29.18h-5.75l-11.26-19.71c0.01,0.5,0.03,0.83,0.04,0.98c0.06,0.5,0.09,0.92,0.09,1.26v17.46
					h-5.25v-29.18h7.26l9.79,17.21c-0.09-0.86-0.13-1.5-0.13-1.94v-15.26H432.18z"/>
				<path class="st2" d="M468.62,518.43l-5.73,1.94c-0.77-2.31-2.4-3.46-4.9-3.46c-2.66,0-4,0.88-4,2.63c0,0.7,0.25,1.29,0.75,1.77
					c0.5,0.49,1.62,0.91,3.38,1.26c2.93,0.6,5.08,1.21,6.44,1.82c1.36,0.61,2.51,1.6,3.44,2.96c0.93,1.36,1.4,2.88,1.4,4.56
					c0,2.64-1,4.92-3,6.84c-2,1.92-4.97,2.89-8.9,2.89c-2.95,0-5.46-0.68-7.53-2.04c-2.07-1.36-3.44-3.38-4.09-6.06l6.24-1.43
					c0.7,2.72,2.65,4.08,5.85,4.08c1.54,0,2.69-0.3,3.45-0.91c0.76-0.61,1.14-1.33,1.14-2.17c0-0.86-0.34-1.52-1.03-1.99
					c-0.69-0.47-2.01-0.91-3.98-1.32c-3.66-0.77-6.27-1.82-7.83-3.15c-1.56-1.33-2.34-3.28-2.34-5.85c0-2.59,0.93-4.78,2.79-6.56
					c1.86-1.78,4.38-2.67,7.57-2.67C463.37,511.56,467,513.85,468.62,518.43z"/>
				<path class="st2" d="M494.35,517.57h-13.7v5.99h10.77v5.49h-10.77v6.37h13.7v5.77H473.8v-29.18h20.55V517.57z"/>
				<path class="st2" d="M505.18,529.63v11.56h-6.79v-29.18h12.65c2.33,0,4.2,0.27,5.62,0.82c1.41,0.55,2.58,1.56,3.51,3.02
					c0.93,1.47,1.39,3.1,1.39,4.89c0,3.5-1.67,6.02-5,7.54l5.31,12.9h-7.45l-4.42-11.56H505.18z M505.18,517.21v7.44h4.13
					c1.35,0,2.33-0.1,2.94-0.29c0.61-0.19,1.16-0.62,1.63-1.28c0.48-0.66,0.72-1.42,0.72-2.28c0-0.81-0.24-1.54-0.72-2.18
					c-0.48-0.64-1-1.04-1.56-1.19c-0.56-0.15-1.62-0.23-3.16-0.23H505.18z"/>
				<path class="st2" d="M547.63,512.01l-8.69,29.18h-7.24l-8.64-29.18h7.17l5.76,20.86l5.99-20.86H547.63z"/>
				<path class="st2" d="M556.94,512.01v29.18h-6.72v-29.18H556.94z"/>
				<path class="st2" d="M585.92,522.87l-7.06,0.45c-0.1-4.12-1.68-6.18-4.75-6.18c-3.52,0-5.28,3.17-5.28,9.51
					c0,3.66,0.48,6.15,1.43,7.45c0.96,1.3,2.29,1.95,4.01,1.95c2.79,0,4.49-1.84,5.11-5.52l6.53,0.41c-0.42,3.49-1.7,6.15-3.85,7.96
					c-2.14,1.82-4.77,2.73-7.87,2.73c-3.81,0-6.9-1.33-9.28-4c-2.38-2.66-3.57-6.35-3.57-11.05c0-4.4,1.15-8.01,3.46-10.82
					c2.3-2.81,5.45-4.21,9.44-4.21C581.16,511.56,585.05,515.33,585.92,522.87z"/>
				<path class="st2" d="M610.35,517.57h-13.7v5.99h10.77v5.49h-10.77v6.37h13.7v5.77H589.8v-29.18h20.55V517.57z"/>
				<path class="st2" d="M634.27,518.43l-5.73,1.94c-0.77-2.31-2.4-3.46-4.9-3.46c-2.66,0-4,0.88-4,2.63c0,0.7,0.25,1.29,0.75,1.77
					c0.5,0.49,1.62,0.91,3.38,1.26c2.93,0.6,5.08,1.21,6.44,1.82c1.36,0.61,2.51,1.6,3.44,2.96c0.93,1.36,1.4,2.88,1.4,4.56
					c0,2.64-1,4.92-3,6.84c-2,1.92-4.97,2.89-8.9,2.89c-2.95,0-5.46-0.68-7.53-2.04c-2.07-1.36-3.44-3.38-4.09-6.06l6.24-1.43
					c0.7,2.72,2.65,4.08,5.85,4.08c1.54,0,2.69-0.3,3.45-0.91c0.76-0.61,1.14-1.33,1.14-2.17c0-0.86-0.34-1.52-1.03-1.99
					c-0.69-0.47-2.01-0.91-3.98-1.32c-3.66-0.77-6.27-1.82-7.83-3.15c-1.56-1.33-2.34-3.28-2.34-5.85c0-2.59,0.93-4.78,2.79-6.56
					c1.86-1.78,4.38-2.67,7.57-2.67C629.03,511.56,632.66,513.85,634.27,518.43z"/>
			</g>
		</g>
	</g>
</g>
</svg>
